<svg width="1440" height="986" viewBox="0 0 1440 986" fill="none" xmlns="http://www.w3.org/2000/svg">
<g clip-path="url(#clip0_9_24)">
<mask id="mask0_9_24" style="mask-type:alpha" maskUnits="userSpaceOnUse" x="0" y="0" width="1440" height="986">
<path d="M1440 0H0V986H1440V0Z" fill="#D9D9D9"/>
</mask>
<g mask="url(#mask0_9_24)">
<path fill-rule="evenodd" clip-rule="evenodd" d="M-313.964 44.7092L-265.448 49.7427L-313.964 44.9183V44.9194V45.6023V45.6276L-114.56 65.4595L-313.964 80.6421V81.3251L-114.489 66.1432L-313.964 117.549V118.258V118.284L-112.108 66.2713L-301.555 219.664L-313.964 229.711L-313.965 230.605L-313.964 230.604L-311.481 228.594L-110.809 66.1435L-64.1561 304.585L-313.929 268.251V268.246H-313.964L-313.965 268.955L-64.5071 305.257L-120.044 356.264L-294.945 286.142L-313.964 278.517L-313.965 278.516H-314V279.278L-120.45 356.871L-260.405 618.733L-263.537 606.807L-313.929 414.845V414.74H-313.957L-313.964 414.713L-313.964 414.74L-313.964 414.743V417.445L-261.148 618.601L-313.964 570.085H-313.999V571.031L-261.218 619.525L-313.965 638.407L-313.965 638.433V639.195L-263.611 621.167L-263.85 621.317L-298.135 642.794H-313.965L-313.965 642.819V643.502H-298.318L-275.523 798.756L-313.894 679.867V679.673H-313.957L-313.965 679.647V679.673V681.906L-275.179 802.095L-313.965 782.668L-313.965 782.694L-313.965 783.456L-313.929 783.474V783.483L-285.414 797.767L-275.24 802.867L-313.964 831.472L-313.965 831.473V832.314L-313.964 832.313V832.339L-275.267 803.782L-313.964 920.177L-313.965 920.178V922.358L-313.928 922.249V922.358L-274.62 804.15L-223.465 1018.58L-313.965 1034.78L-313.965 1035.49L-313.929 1035.49V1035.49L-243.965 1022.97L-224.143 1019.42L-258.163 1051.32L-261.008 1053.99H-261.006H-259.98L-223.13 1019.42L-203.498 1053.84L-203.413 1053.99H-202.634H-202.599L-222.458 1019.15L-151.711 1011.88L140.799 981.817L16.8049 1053.99H16.8409H18.1849H18.2209L142.19 981.838L166.189 1053.99H166.224H166.225H166.932L143.038 982.09L257.802 1053.99H257.836H257.838H259.148L143.516 981.55L301.341 967.604L293.839 1053.99V1054.04H294.582L302.083 967.724L506.977 1053.99H508.782L374.213 997.335L304.75 968.085L549.61 1009.76L538.814 1053.08L538.588 1053.99H539.296L550.305 1009.78L660.712 995.955L556.536 1053.99H557.952L558.22 1053.84L662.048 996.039L655.361 1053.16L655.264 1053.99V1054.01H655.936L655.94 1053.99H655.972L662.076 1001.94L661.64 1053.45L661.636 1053.96V1053.99H662.344L662.839 995.487L704.22 930.974L704.36 929.451L662.598 994.582L592.573 793.333C592.563 793.292 592.544 793.254 592.519 793.222C592.514 793.215 592.508 793.208 592.502 793.201C592.447 793.14 592.371 793.095 592.29 793.077L415.153 695.329C415.148 695.328 415.143 695.327 415.138 695.325C415.061 695.29 414.963 695.286 414.881 695.313L189.471 675.694L130.107 470.586C130.111 470.577 130.115 470.567 130.118 470.558L130.119 470.554C130.148 470.487 130.154 470.409 130.133 470.335C130.124 470.294 130.108 470.254 130.082 470.216L130.061 470.207C130.04 470.179 130.012 470.155 129.977 470.138L129.968 470.131L129.958 470.125C129.946 470.116 129.932 470.108 129.919 470.1C129.899 470.089 129.878 470.079 129.856 470.071L126.738 467.407L-96.9531 366.819L-119.381 356.605L-99.9561 338.75L-63.8701 305.598L54.4149 405.581L-63.3741 304.889C-63.3791 304.875 -63.3851 304.861 -63.3921 304.847L-110.242 65.4343C-110.242 65.303 -110.349 65.2242 -110.455 65.1716C-110.476 65.1639 -110.496 65.1578 -110.515 65.1534C-110.53 65.1496 -110.545 65.1466 -110.56 65.1443L-110.784 65.1221L-313.964 44V44.7092ZM54.4149 405.581L126.738 467.407L128.489 468.194L54.4149 405.581ZM704.22 930.974L694.628 1053.99H695.301L705 929.661L704.22 930.974ZM-119.899 357.296L-172.273 455.282L-259.754 618.98L17.9629 512.784L128.81 470.325L-2.17209 410.659L-119.899 357.296ZM129.089 471.067L85.2199 549.841L43.7119 624.006L-127.109 621.369L-256.724 619.363L80.8969 489.495L129.089 471.067ZM65.1129 631.491L187.217 674.919L130.118 471.11L65.7189 586.038L44.4919 624.155L65.1129 631.491ZM188.739 676.999L160.872 839.979L30.8159 821.36L188.739 676.999ZM174.897 849.992L161.795 841.213L179.273 906.965L178.74 900.011L174.897 849.992ZM142.401 980.619L179.457 910.97L31.2219 822.739L142.401 980.619ZM44.3439 624.846L188.611 676.167L30.3979 820.751L44.3439 624.846ZM175.632 850.123L180.22 910.067L253.842 850.123H175.632ZM113.387 870.855L31.6459 822.202L160.88 840.719L179.358 910.118L113.387 870.855ZM162.526 840.886L175.346 849.44H247.762L162.526 840.886ZM-259.883 620.046L42.5719 624.694L-40.3561 665.444L-194.748 741.308L-259.883 620.046ZM15.0809 816.693L-194.614 742.296L-222.587 1018.07L29.2659 821.729L15.0809 816.693ZM-185.014 737.287L-194.032 741.718L-166.471 751.502L29.6559 821.119L43.6379 624.933L-185.014 737.287ZM29.9139 822.099L69.3249 878.056L141.8 980.988L-221.83 1018.36L29.9139 822.099ZM143.062 980.882L180.083 911.309L246.941 942.228L300.393 966.965L143.062 980.882ZM161.59 840.076L189.395 677.427L254.309 849.382L161.59 840.076ZM414.231 695.777L189.847 676.576L231.463 786.818L254.997 849.142L343.877 763.607L414.231 695.777ZM-297.503 644.083L-274.303 802.163L-195.46 741.734L-290.515 650.77L-297.503 644.083ZM-195.344 742.549L-258.427 790.898L-274.176 802.973L-223.166 1016.79L-195.344 742.549ZM-196.262 740.01L-204.348 732.273L-297.427 643.21L-260.653 620.151L-196.262 740.01ZM549.853 1008.58L419.125 829.92L396.116 798.465L591.792 793.791L549.853 1008.58ZM549.232 1008.97L302.28 966.942L395.481 798.786L549.232 1008.97ZM301.091 966.531L218.233 928.204L180.561 910.775L189.819 903.233L254.731 850.381L301.091 966.531ZM589.672 793.131L395.898 797.761L415.167 696.575L415.259 696.091L589.672 793.131ZM592.326 794.756L662.026 995.094L550.507 1009.05L592.326 794.756ZM414.394 696.723L395.152 797.85L257.485 848.441L378.206 731.548L414.394 696.723ZM394.691 798.769L301.803 966.382L255.36 849.991L394.691 798.769Z" fill="url(#paint0_linear_9_24)"/>
<path fill-rule="evenodd" clip-rule="evenodd" d="M1818.96 927.33L1770.45 922.29L1818.96 927.12V926.43V926.41L1619.56 906.578L1818.96 891.395V890.712L1619.49 905.894L1818.96 854.488V853.779V853.753L1617.11 905.766L1807.14 751.901L1818.96 742.326V741.433L1816.48 743.444L1615.81 905.894L1569.16 667.452L1818.93 703.786V703.792H1818.96V703.082L1569.51 666.781L1625.04 615.773L1799.94 685.895L1818.96 693.52L1819 693.521V692.759L1625.45 615.167L1765.41 353.304L1768.54 365.229L1818.93 557.192V557.297H1818.96V557.295V554.593L1766.15 353.436L1818.96 401.952H1819V401.007L1766.22 352.512L1818.96 333.63V333.604V332.842L1768.61 350.87L1768.89 350.695L1803.13 329.244H1818.96V329.218V328.535H1803.32L1780.52 173.282L1818.89 292.171V292.365H1818.96V290.131L1780.18 169.942L1818.96 189.369V189.343V188.581L1818.93 188.564V188.555L1790.61 174.37L1780.24 169.17L1818.96 140.565V140.564V139.724V139.699L1780.27 168.255L1818.96 51.86V49.68L1818.93 49.789V49.68L1779.62 167.888L1728.47 -46.5411L1818.96 -62.7452V-63.4552L1818.93 -63.4488V-63.4545L1749.71 -51.0637L1729.14 -47.3834L1763.29 -79.4016L1766.01 -81.9475L1764.98 -81.9481L1728.13 -47.3801L1708.5 -81.7981L1708.41 -81.9476L1707.63 -81.9481L1707.6 -81.9476L1727.46 -47.1168L1659.45 -40.1251L1364.2 -9.7792L1488.2 -81.9475L1488.16 -81.9476L1486.81 -81.9475L1486.78 -81.9476L1362.81 -9.8009L1338.81 -81.9462H1338.78V-81.9475H1338.07V-81.9462L1361.96 -10.0521L1247.2 -81.9462H1247.16V-81.9475H1245.85L1361.48 -9.5126L1203.66 4.4335L1211.16 -81.9474V-82H1210.42L1202.92 4.3129L998.023 -81.9465L996.218 -81.9474L1131.05 -25.1868L1200.25 3.9523L955.39 -37.7224L966.194 -81.0742L966.412 -81.9465L965.704 -81.9475L954.695 -37.7394L844.288 -23.9178L948.464 -81.9475H947.048L946.78 -81.7983L842.952 -24.0016L849.634 -81.0781L849.736 -81.9475V-81.9738H849.064L849.06 -81.9475H849.028L842.924 -29.8988L843.36 -81.4095L843.364 -81.9212V-81.9475H842.656L842.161 -23.4499L800.779 41.063L800.637 42.587L842.402 -22.5441L912.427 178.704C912.431 178.719 912.435 178.734 912.441 178.747C912.451 178.772 912.465 178.795 912.481 178.816C912.486 178.823 912.492 178.83 912.498 178.836C912.553 178.897 912.629 178.943 912.71 178.96L1089.85 276.708C1089.85 276.709 1089.86 276.711 1089.86 276.712C1089.94 276.747 1090.04 276.752 1090.12 276.725L1315.53 296.344L1374.89 501.452V501.46V501.466L1374.88 501.473V501.48V501.483C1374.85 501.551 1374.85 501.628 1374.87 501.702C1374.88 501.743 1374.89 501.784 1374.92 501.821L1374.94 501.831C1374.94 501.837 1374.95 501.843 1374.95 501.849C1374.96 501.856 1374.97 501.862 1374.97 501.868C1374.99 501.88 1375 501.891 1375.02 501.9C1375.03 501.904 1375.04 501.909 1375.04 501.913L1375.06 501.922C1375.06 501.927 1375.07 501.932 1375.08 501.937C1375.1 501.948 1375.12 501.958 1375.14 501.966L1378.26 504.631L1601.95 605.216L1624.38 615.433L1605.11 633.148L1568.87 666.439L1450.58 566.454L1568.37 667.148C1568.38 667.163 1568.39 667.177 1568.39 667.19L1615.24 906.603C1615.24 906.734 1615.35 906.813 1615.45 906.865C1615.48 906.873 1615.5 906.879 1615.51 906.884C1615.53 906.887 1615.54 906.891 1615.56 906.893L1615.78 906.915L1818.96 928.04V927.33ZM1450.58 566.454L1378.26 504.631L1376.51 503.844L1450.58 566.454ZM800.779 41.063L810.372 -81.9475H809.699L800 42.376L800.779 41.063ZM1624.9 614.741L1677.21 516.878L1764.75 353.057L1487.06 459.243L1376.19 501.712L1507.18 561.381L1624.9 614.741ZM1375.91 500.971L1419.78 422.196L1461.29 348.031L1631.38 350.657L1761.72 352.674L1424.1 482.542L1375.91 500.971ZM1439.18 340.295L1317.78 297.119L1374.88 500.928L1439.28 385.992L1460.51 347.882L1439.18 340.295ZM1316.26 295.038L1344.13 132.058L1474.18 150.677L1316.26 295.038ZM1330.1 122.046L1343.2 130.825L1325.73 65.072L1326.25 71.866L1330.1 122.046ZM1362.6 -8.5813L1325.54 61.068L1473.78 149.298L1362.6 -8.5813ZM1460.66 347.192L1316.39 295.871L1474.6 151.286L1460.66 347.192ZM1329.37 121.914L1324.78 61.971L1251.16 121.914H1329.37ZM1390.45 100.491L1473.35 149.835L1344.12 131.318L1325.64 61.919L1390.45 100.491ZM1342.47 131.152L1329.65 122.597H1257.24L1342.47 131.152ZM1764.88 351.992L1462.43 347.343L1548.1 305.246L1699.75 230.729L1764.88 351.992ZM1489.75 155.285L1699.61 229.741L1727.59 -46.0311L1475.73 150.309L1489.75 155.285ZM1686.65 236.404L1699.03 230.319L1671.47 220.535L1475.34 150.919L1461.36 347.105L1686.65 236.404ZM1475.09 149.938L1435.79 94.148L1363.2 -8.9506L1726.83 -46.3267L1475.09 149.938ZM1361.94 -8.8442L1324.92 60.728L1258.25 29.896L1204.61 5.0729L1361.94 -8.8442ZM1343.41 131.962L1315.6 294.61L1250.69 122.656L1343.41 131.962ZM1090.77 276.261L1315.15 295.461L1273.54 185.219L1250 122.895L1161.12 208.43L1090.77 276.261ZM1802.5 327.954L1779.3 169.875L1700.46 230.304L1795.51 321.267L1802.5 327.954ZM1700.34 229.489L1763.43 181.139L1779.18 169.065L1728.17 -44.7528L1700.34 229.489ZM1701.26 232.028L1709.35 239.764L1802.43 328.827L1765.65 351.886L1701.26 232.028ZM955.147 -36.5473L1085.82 142.043L1108.88 173.572L913.208 178.247L955.147 -36.5473ZM955.768 -36.9352L1202.72 5.0955L1109.52 173.252L955.768 -36.9352ZM1203.91 5.5068L1287.4 44.129L1324.44 61.263L1315.04 68.919L1250.27 121.657L1203.91 5.5068ZM915.328 178.907L1109.1 174.277L1089.83 275.482L1089.74 275.946L915.328 178.907ZM912.674 177.282L842.974 -23.0565L954.493 -37.0175L912.674 177.282ZM1090.61 275.315L1109.85 174.187L1247.52 123.596L1126.79 240.49L1090.61 275.315ZM1110.31 173.268L1203.2 5.6552L1249.64 122.046L1110.31 173.268Z" fill="url(#paint1_linear_9_24)"/>
</g>
</g>
<defs>
<linearGradient id="paint0_linear_9_24" x1="-333" y1="505.963" x2="601.541" y2="921.351" gradientUnits="userSpaceOnUse">
<stop stop-color="#191A28"/>
<stop offset="1" stop-color="#412E67"/>
</linearGradient>
<linearGradient id="paint1_linear_9_24" x1="714.5" y1="-103.275" x2="1437.13" y2="248.914" gradientUnits="userSpaceOnUse">
<stop stop-color="#191A28"/>
<stop offset="1" stop-color="#412E67"/>
</linearGradient>
<clipPath id="clip0_9_24">
<rect width="1440" height="986" fill="white"/>
</clipPath>
</defs>
</svg>
