<svg width="64" height="64" viewBox="0 0 64 64" fill="none" xmlns="http://www.w3.org/2000/svg">
<path opacity="0.2" d="M63.04 39.7416C58.766 56.8846 41.402 67.3166 24.257 63.0426C7.11998 58.7686 -3.31302 41.4046 0.961981 24.2626C5.23398 7.1176 22.597 -3.3164 39.737 0.957596C56.881 5.2316 67.313 22.5976 63.039 39.7416H63.04Z" fill="#F7931A"/>
<path fill-rule="evenodd" clip-rule="evenodd" d="M41.6374 28.2823C42.0688 25.3937 39.8695 23.8409 36.8622 22.805L37.8377 18.8921L35.4552 18.2985L34.5055 22.1083C33.88 21.9523 33.2369 21.8051 32.5979 21.6592L33.5544 17.8243L31.1739 17.2307L30.1977 21.1423C29.6795 21.0242 29.1707 20.9076 28.6768 20.7848L28.6795 20.7726L25.3948 19.9524L24.7612 22.4963C24.7612 22.4963 26.5284 22.9013 26.491 22.9264C27.4557 23.1673 27.6307 23.8056 27.6009 24.3117L26.4897 28.7694C26.5562 28.7863 26.6423 28.8108 26.7373 28.8487L26.4863 28.7863L24.928 35.0309C24.81 35.3239 24.5108 35.7635 23.8365 35.5966C23.8603 35.6312 22.1053 35.1645 22.1053 35.1645L20.9229 37.8916L24.0231 38.6643C24.3731 38.752 24.7188 38.8422 25.0607 38.9314L25.0608 38.9314L25.0615 38.9316C25.2826 38.9893 25.5023 39.0466 25.7204 39.1025L24.7347 43.0609L27.1138 43.6545L28.0907 39.7389C28.7399 39.9152 29.3708 40.0781 29.9881 40.2314L29.0153 44.1287L31.3971 44.7223L32.3828 40.772C36.4443 41.5407 39.4991 41.2306 40.7833 37.5579C41.8192 34.6001 40.7324 32.894 38.5955 31.7807C40.1517 31.4205 41.3239 30.3968 41.6367 28.2823H41.6374ZM36.1947 35.9135C35.5185 38.6281 31.2684 37.5049 29.3256 36.9914L29.3253 36.9913C29.1514 36.9454 28.996 36.9043 28.8634 36.8713L30.1713 31.6281C30.3335 31.6686 30.5317 31.7131 30.7563 31.7634L30.7564 31.7635C32.7663 32.2145 36.8855 33.1388 36.1953 35.9135H36.1947ZM31.1604 29.3304C32.7815 29.7629 36.3151 30.7056 36.9307 28.2396C37.5601 25.7167 34.1239 24.9563 32.4458 24.5849C32.2571 24.5432 32.0907 24.5063 31.9548 24.4725L30.7689 29.228C30.8811 29.2559 31.0128 29.291 31.1604 29.3304Z" fill="#F7931A"/>
</svg>
