<svg width="64" height="64" viewBox="0 0 64 64" fill="none" xmlns="http://www.w3.org/2000/svg">
<path opacity="0.2" d="M32 64C49.6731 64 64 49.6731 64 32C64 14.3269 49.6731 0 32 0C14.3269 0 0 14.3269 0 32C0 49.6731 14.3269 64 32 64Z" fill="#00FFA3"/>
<path fill-rule="evenodd" clip-rule="evenodd" d="M41.7803 15.5926C42.4181 15.3284 42.8339 14.7057 42.8339 14.0151H42.8347C42.8348 13.5622 42.655 13.1279 42.3349 12.8077C42.0149 12.4874 41.5808 12.3076 41.1281 12.3076C40.4378 12.3073 39.8153 12.7231 39.5509 13.3611C39.2865 13.9991 39.4323 14.7337 39.9203 15.2221C40.4083 15.7106 41.1424 15.8569 41.7803 15.5926ZM24.0916 14.1505C24.0917 14.8412 23.6759 15.4639 23.0381 15.7283C22.4003 15.9927 21.6661 15.8466 21.1779 15.3582C20.6898 14.8698 20.5438 14.1352 20.808 13.4971C21.0722 12.859 21.6947 12.443 22.385 12.443C23.3276 12.443 24.0916 13.2075 24.0916 14.1505ZM33.557 13.7781C32.8346 13.0289 31.9943 12.1573 30.8659 12.6485V12.6479C29.6661 13.1101 29.466 14.8488 30.4451 15.6491C31.4785 16.5599 32.4583 17.5299 33.4379 18.4997L33.4379 18.4997L33.4379 18.4997L33.4379 18.4998C33.9552 19.0119 34.4725 19.524 34.9976 20.0273C35.5765 20.6012 36.499 20.9118 37.2542 20.4997C38.2365 20.0607 38.529 18.6182 37.8066 17.8299C36.5474 16.4986 35.217 15.2365 33.8213 14.0491C33.7349 13.9626 33.6469 13.8714 33.5572 13.7783L33.557 13.7782L33.557 13.7781ZM47.1798 17.6237C46.9408 16.5994 45.5649 16.223 44.705 16.686H44.7052C43.4963 17.7059 42.4369 18.8804 41.3778 20.0546L41.3777 20.0546L41.3777 20.0546L41.3777 20.0547L41.3777 20.0547L41.3777 20.0547L41.3777 20.0547L41.3777 20.0547L41.3777 20.0547L41.3777 20.0547L41.3776 20.0548L41.3776 20.0548L41.3776 20.0548L41.3776 20.0548L41.3776 20.0548L41.3776 20.0548L41.3776 20.0548L41.3776 20.0549L41.3776 20.0549C40.7839 20.713 40.1904 21.371 39.5707 22.0016C38.8034 22.7751 39.078 24.3041 40.0959 24.7253C40.8004 25.0508 41.678 24.8896 42.1765 24.2862C43.5431 22.8586 44.911 21.4312 46.317 20.0426C46.9589 19.4362 47.544 18.5346 47.1798 17.6237ZM17.2259 16.9698C18.1216 16.4293 19.2289 16.7875 19.8917 17.5223C20.8301 18.4699 21.7871 19.3974 22.7434 20.3243L22.7435 20.3244L22.7435 20.3244L22.7435 20.3245C23.306 20.8696 23.8681 21.4145 24.4261 21.963C25.4231 22.8858 24.7276 24.8389 23.3366 24.845C22.4827 24.9765 21.9226 24.3912 21.3773 23.8213C21.1791 23.6142 20.9829 23.4091 20.7752 23.2412C19.4095 22.1095 18.1582 20.8498 16.9192 19.5799C16.2177 18.8572 16.4274 17.5313 17.2267 16.9698H17.2259ZM20.4128 28.485C21.3493 27.1803 19.8835 25.2868 18.382 25.8663L18.3838 25.8661C17.061 26.7633 15.9951 27.976 14.9294 29.1885C14.3068 29.8969 13.6842 30.6053 13.0104 31.2506C11.9985 32.1893 12.697 34.1235 14.0881 34.1772C15.0464 34.2928 15.6648 33.5809 16.2425 32.9157C16.3811 32.7561 16.5173 32.5993 16.6554 32.4572C17.1558 31.8917 17.6964 31.3612 18.2366 30.8309C19.0006 30.0811 19.7641 29.3317 20.4128 28.485ZM48.8276 30.0529C49.8604 29.378 51.4187 30.1454 51.4517 31.3913C51.5629 32.2466 50.9729 32.8071 50.3977 33.3533C50.1858 33.5547 49.9758 33.7541 49.8038 33.9656C48.6785 35.3213 47.443 36.5848 46.1679 37.8002C45.2366 38.6809 43.4961 38.0627 43.3289 36.7879C43.1537 35.7292 43.9177 34.9928 44.629 34.3074C44.8026 34.1401 44.9731 33.9757 45.126 33.8105C45.7121 33.2662 46.2569 32.6775 46.801 32.0895L46.801 32.0895C47.454 31.3838 48.1061 30.6791 48.8274 30.0535L48.8276 30.0529ZM24.8478 40.6454C24.824 39.4271 23.3018 38.7134 22.2985 39.3137V39.3147C21.4742 40.0347 20.7211 40.8309 19.9674 41.6279L19.9674 41.6279L19.9674 41.6279C19.3641 42.2658 18.7603 42.9042 18.1192 43.5043L18.0915 43.5313C17.352 44.2493 16.4046 45.1693 16.7968 46.3047C17.0297 47.4961 18.779 47.8965 19.6 47.0663C20.8626 45.8357 22.1134 44.5898 23.2359 43.2317C23.4044 43.0236 23.6099 42.8267 23.8174 42.6279C24.3927 42.0766 24.9839 41.5102 24.8478 40.6454ZM40.126 39.2689C40.6814 39.0779 41.3851 39.063 41.8542 39.4631C42.4434 40.0231 43.0452 40.5697 43.6471 41.1163L43.6472 41.1164L43.6472 41.1165L43.6473 41.1166L43.6474 41.1166L43.6475 41.1167L43.6476 41.1168L43.6477 41.1169L43.6478 41.117L43.6479 41.1171L43.648 41.1172L43.6481 41.1173L43.6482 41.1174L43.6483 41.1175L43.6484 41.1175C44.821 42.1825 45.9935 43.2474 47.0724 44.4115C47.5768 44.9223 47.6217 45.7792 47.2874 46.3943C46.8153 47.4993 45.1976 47.526 44.4125 46.7437C43.6583 46.0319 42.9182 45.3032 42.1778 44.5742L42.1778 44.5742L42.1777 44.5742L42.1777 44.5741L42.1777 44.5741L42.1776 44.5741L42.1776 44.574L42.1776 44.574L42.1775 44.574L42.1775 44.5739L42.1775 44.5739L42.1774 44.5739L42.1774 44.5738L42.1774 44.5738C41.3618 43.7708 40.5459 42.9675 39.7107 42.1864C38.7468 41.4369 38.9734 39.7017 40.1258 39.2687L40.126 39.2689ZM29.1406 44.0978C28.5465 43.4677 27.5757 43.0436 26.7494 43.4915L26.7492 43.4907C25.7581 43.924 25.4597 45.384 26.194 46.1695C27.4122 47.4453 28.6728 48.6847 30.0302 49.8108C30.2439 49.9838 30.4445 50.1959 30.647 50.41L30.647 50.41C31.1852 50.9792 31.7367 51.5623 32.5825 51.4621C34.0243 51.4474 34.716 49.4732 33.6931 48.4997C32.1376 47.0722 30.6392 45.5851 29.1408 44.098L29.1406 44.0978ZM27.3599 20.3993C28.3024 20.3992 29.0664 19.6348 29.0664 18.6918C29.0664 18.2389 28.8866 17.8046 28.5665 17.4844C28.2464 17.1642 27.8123 16.9843 27.3596 16.9844C26.4171 16.9845 25.6532 17.749 25.6532 18.692C25.6533 19.6349 26.4174 20.3993 27.3599 20.3993ZM15.7408 22.8637C15.741 23.5544 15.3252 24.1772 14.6874 24.4417C14.0497 24.7061 13.3155 24.5601 12.8272 24.0717C12.339 23.5834 12.1929 22.8489 12.4571 22.2107C12.7212 21.5726 13.3436 21.1565 14.034 21.1565C14.4866 21.1564 14.9207 21.3363 15.2408 21.6564C15.5609 21.9766 15.7407 22.4109 15.7408 22.8637ZM51.6727 22.4354C51.6727 23.3784 50.9086 24.1429 49.9661 24.1429C49.0235 24.1429 48.2595 23.3784 48.2595 22.4354C48.2595 21.4924 49.0235 20.728 49.9661 20.728C50.9086 20.728 51.6727 21.4924 51.6727 22.4354ZM45.3019 29.0491C46.2444 29.049 47.0084 28.2845 47.0083 27.3415C47.0082 26.8886 46.8284 26.4544 46.5083 26.1342C46.1882 25.814 45.7541 25.6342 45.3015 25.6342C44.359 25.6343 43.595 26.3989 43.5951 27.3419C43.5952 28.2849 44.3593 29.0492 45.3019 29.0491ZM51.6648 41.1312C51.6648 42.0742 50.9008 42.8386 49.9583 42.8387C49.0158 42.8387 48.2517 42.0743 48.2516 41.1313C48.2515 40.1884 49.0155 39.4239 49.958 39.4238C50.4107 39.4237 50.8448 39.6036 51.1649 39.9238C51.485 40.244 51.6648 40.6783 51.6648 41.1312ZM37.3008 46.8732C37.9386 46.6089 38.3544 45.9861 38.3543 45.2954C38.3543 44.8425 38.1745 44.4082 37.8544 44.088C37.5343 43.7678 37.1001 43.5879 36.6475 43.588C35.9571 43.588 35.3348 44.0041 35.0706 44.6422C34.8064 45.2803 34.9525 46.0148 35.4407 46.5032C35.9289 46.9916 36.663 47.1376 37.3008 46.8732ZM43.2646 49.9651C43.2647 50.6558 42.849 51.2786 42.2112 51.543C41.5734 51.8075 40.8393 51.6615 40.351 51.1731C39.8628 50.6848 39.7167 49.9502 39.9809 49.3121C40.245 48.6739 40.8674 48.2578 41.5578 48.2578C42.0104 48.2578 42.4445 48.4376 42.7646 48.7578C43.0847 49.078 43.2645 49.5122 43.2646 49.9651ZM23.5205 51.5429C24.1583 51.2786 24.5741 50.6558 24.574 49.9651C24.574 49.0221 23.8099 48.2576 22.8674 48.2576C22.177 48.2576 21.5546 48.6736 21.2904 49.3117C21.0261 49.9498 21.1722 50.6844 21.6603 51.1728C22.1485 51.6612 22.8827 51.8073 23.5205 51.5429ZM20.4115 36.592C20.4115 37.2828 19.9957 37.9055 19.3579 38.1699C18.7201 38.4342 17.986 38.2881 17.4978 37.7997C17.0096 37.3113 16.8636 36.5768 17.1278 35.9387C17.3921 35.3005 18.0145 34.8845 18.7049 34.8846C19.6474 34.8846 20.4115 35.649 20.4115 36.592ZM14.6873 43.1322C15.3251 42.8678 15.7409 42.2451 15.7408 41.5544C15.7408 41.1015 15.561 40.6672 15.2409 40.347C14.9208 40.0267 14.4866 39.8469 14.034 39.8469C13.3436 39.8469 12.7213 40.263 12.4571 40.9011C12.1929 41.5393 12.339 42.2738 12.8272 42.7621C13.3154 43.2505 14.0495 43.3966 14.6873 43.1322Z" fill="#00FFA3"/>
</svg>
