<svg width="64" height="64" viewBox="0 0 64 64" fill="none" xmlns="http://www.w3.org/2000/svg">
<path opacity="0.2" d="M32 64C49.6731 64 64 49.6731 64 32C64 14.3269 49.6731 0 32 0C14.3269 0 0 14.3269 0 32C0 49.6731 14.3269 64 32 64Z" fill="#8672C1"/>
<mask id="mask0_201_1087" style="mask-type:luminance" maskUnits="userSpaceOnUse" x="0" y="0" width="64" height="64">
<path d="M32 64C49.6731 64 64 49.6731 64 32C64 14.3269 49.6731 0 32 0C14.3269 0 0 14.3269 0 32C0 49.6731 14.3269 64 32 64Z" fill="white"/>
</mask>
<g mask="url(#mask0_201_1087)">
<path fill-rule="evenodd" clip-rule="evenodd" d="M31.234 48.2096L30.0316 45.8431L17.522 20.9698C17.522 20.9698 17.2406 20.139 17.8034 20.0131C19.6453 19.9628 21.3337 19.9628 23.0221 19.9376C23.0221 19.9376 23.2268 19.9376 23.3803 20.3152C23.5338 20.6929 33.434 40.1535 33.434 40.1535C33.434 40.1535 35.6341 42.1675 37.3737 40.1283C38.7551 37.4597 43.9738 27.163 47.5297 20.1138C47.5297 20.1138 48.1948 19.7362 48.7577 19.9628C49.3205 20.1894 49.0646 20.6425 49.0646 20.6425L35.2503 47.9579C35.2759 47.9579 33.6131 50.3747 31.234 48.2096Z" fill="url(#paint0_linear_201_1087)"/>
<path fill-rule="evenodd" clip-rule="evenodd" d="M17.7524 21.3223L26.6038 31.8959L30.4667 46.6236L17.7524 21.3223Z" fill="#1F231C" fill-opacity="0.0549828"/>
<path fill-rule="evenodd" clip-rule="evenodd" d="M23.9429 21.3977L26.5778 31.8959L32.9733 39.1967L23.9429 21.3977V21.3977Z" fill="#15191C" fill-opacity="0.0549828"/>
<path fill-rule="evenodd" clip-rule="evenodd" d="M30.3898 46.4726L26.5781 31.896L32.9736 39.1717L33.8178 42.6207L30.3898 46.4726Z" fill="url(#paint1_linear_201_1087)"/>
</g>
<defs>
<linearGradient id="paint0_linear_201_1087" x1="-38.678" y1="67.4262" x2="65.2428" y2="184.694" gradientUnits="userSpaceOnUse">
<stop stop-color="#A875CF"/>
<stop offset="1" stop-color="#18BBFE"/>
</linearGradient>
<linearGradient id="paint1_linear_201_1087" x1="20.335" y1="69.9163" x2="56.3462" y2="77.8424" gradientUnits="userSpaceOnUse">
<stop stop-opacity="0.1"/>
<stop offset="1" stop-color="white" stop-opacity="0.01"/>
</linearGradient>
</defs>
</svg>
