<svg width="64" height="64" viewBox="0 0 64 64" fill="none" xmlns="http://www.w3.org/2000/svg">
<path opacity="0.1" d="M32 64C49.6731 64 64 49.6731 64 32C64 14.3269 49.6731 0 32 0C14.3269 0 0 14.3269 0 32C0 49.6731 14.3269 64 32 64Z" fill="#3AB83A"/>
<mask id="mask0_201_1075" style="mask-type:luminance" maskUnits="userSpaceOnUse" x="0" y="0" width="64" height="64">
<path d="M32 64C49.6731 64 64 49.6731 64 32C64 14.3269 49.6731 0 32 0C14.3269 0 0 14.3269 0 32C0 49.6731 14.3269 64 32 64Z" fill="white"/>
</mask>
<g mask="url(#mask0_201_1075)">
<path fill-rule="evenodd" clip-rule="evenodd" d="M24.6152 30.341L33.266 24.7177L41.846 30.3759L33.2283 14.7693L24.6152 30.341ZM24.9452 31.9651L33.2754 26.4757L41.4971 31.9244L33.2801 37.4196L24.9452 31.9651ZM24.6152 33.5369C27.6512 35.5277 30.8193 37.6117 33.266 39.2242L41.846 33.5369C38.7393 39.2358 36.1511 43.9801 33.266 49.2308L31.4968 46.0239L31.496 46.0225C29.1194 41.7148 26.6686 37.2726 24.6152 33.5369Z" fill="#3AB83A"/>
<path fill-rule="evenodd" clip-rule="evenodd" d="M33.2305 14.7693L33.2628 24.7177L41.8459 30.3759L33.2305 14.7693ZM33.2709 26.4757L41.5469 31.9244L33.2749 37.4196L33.2709 26.4757ZM33.2628 39.2242L41.8459 33.5369C39.1837 39.2358 33.2628 49.2308 33.2628 49.2308V39.2242Z" fill="#0B8311"/>
</g>
</svg>
